<svg aria-hidden="true" style="position: absolute; width: 0; height: 0; overflow: hidden;" version="1.1" xmlns="http://www.w3.org/2000/svg" xmlns:xlink="http://www.w3.org/1999/xlink">
<defs>
<symbol id="icon-radio-button" viewBox="0 0 32 32">
<path fill="gold" style="fill: var(--color1, gold)" stroke="black" stroke-linejoin="miter" stroke-linecap="butt" stroke-miterlimit="4" stroke-width="2.2857" d="M30.857 16c0 8.205-6.652 14.857-14.857 14.857s-14.857-6.652-14.857-14.857c0-8.205 6.652-14.857 14.857-14.857s14.857 6.652 14.857 14.857z"></path>
<path d="M22.857 16c0 3.787-3.070 6.857-6.857 6.857s-6.857-3.070-6.857-6.857c0-3.787 3.070-6.857 6.857-6.857s6.857 3.070 6.857 6.857z"></path>
</symbol>
<symbol id="icon-moon" viewBox="0 0 32 32">
<path fill="#ffd960" style="fill: var(--color1, #ffd960)" d="M26.951 9.926c-0.028-0.086-0.102-0.148-0.191-0.161l-2.102-0.305-0.94-1.905c-0.040-0.081-0.122-0.132-0.212-0.132s-0.172 0.051-0.212 0.132l-0.94 1.905-2.102 0.305c-0.089 0.013-0.163 0.075-0.191 0.161s-0.005 0.18 0.060 0.243l1.521 1.482-0.359 2.093c-0.015 0.089 0.021 0.179 0.094 0.232s0.169 0.060 0.249 0.018l1.88-0.988 1.88 0.988c0.035 0.018 0.073 0.027 0.11 0.027 0.049 0 0.098-0.015 0.139-0.045 0.073-0.053 0.109-0.143 0.094-0.232l-0.359-2.093 1.521-1.482c0.064-0.063 0.088-0.157 0.060-0.243z"></path>
<path fill="#231f20" style="fill: var(--color2, #231f20)" opacity="0.2" d="M23.284 11.246l-1.521-1.482c-0.056-0.055-0.081-0.133-0.068-0.209l-1.443 0.21c-0.089 0.013-0.163 0.075-0.191 0.161s-0.005 0.18 0.060 0.243l1.521 1.482-0.359 2.093c-0.015 0.089 0.021 0.179 0.094 0.232s0.169 0.060 0.249 0.018l1.305-0.686 0.354-2.062z"></path>
<path fill="#231f20" style="fill: var(--color2, #231f20)" d="M21.515 14.528c-0.158 0-0.309-0.049-0.437-0.142-0.23-0.167-0.344-0.446-0.295-0.727l0.314-1.831-1.33-1.297c-0.204-0.199-0.276-0.491-0.188-0.762s0.318-0.465 0.6-0.506l1.838-0.267 0.822-1.666c0.126-0.255 0.381-0.414 0.666-0.414s0.54 0.159 0.666 0.414l0.822 1.666 1.838 0.267c0.282 0.041 0.512 0.235 0.6 0.506s0.016 0.562-0.188 0.761l-1.33 1.297 0.314 1.831c0.048 0.28-0.065 0.559-0.296 0.727-0.128 0.093-0.279 0.142-0.437 0.142-0.12 0-0.24-0.030-0.346-0.086l-1.644-0.864-1.644 0.864c-0.106 0.056-0.226 0.085-0.346 0.085zM23.506 12.5c0.081 0 0.162 0.019 0.236 0.058l1.397 0.734-0.267-1.555c-0.028-0.164 0.026-0.332 0.146-0.448l1.13-1.101-1.561-0.227c-0.165-0.024-0.308-0.127-0.381-0.277l-0.698-1.415-0.698 1.415c-0.074 0.149-0.216 0.253-0.381 0.277l-1.561 0.227 1.13 1.101c0.119 0.116 0.174 0.284 0.146 0.448l-0.267 1.555 1.396-0.734c0.074-0.039 0.155-0.058 0.236-0.058z"></path>
<path fill="#3a5d74" style="fill: var(--color3, #3a5d74)" d="M15.599 22.819c-2.499-2.642-4.032-6.208-4.032-10.133 0-5.052 2.541-9.51 6.414-12.168-0.201-0.008-0.403-0.013-0.606-0.013-8.557-0-15.494 6.937-15.494 15.494s6.937 15.494 15.494 15.494c4.075 0 7.783-1.574 10.549-4.147-0.529 0.057-1.065 0.088-1.609 0.088-3.652 0-6.994-1.328-9.57-3.526z"></path>
<path fill="#231f20" style="fill: var(--color2, #231f20)" opacity="0.2" d="M18.769 30.791c-8.557 0-15.494-6.937-15.494-15.494 0-5.774 3.159-10.811 7.843-13.476-5.441 2.404-9.238 7.847-9.238 14.178 0 8.557 6.937 15.494 15.494 15.494 2.782 0 5.393-0.734 7.649-2.018-1.913 0.846-4.029 1.316-6.255 1.316z"></path>
<path fill="#231f20" style="fill: var(--color2, #231f20)" d="M17.374 32c-4.274 0-8.292-1.664-11.314-4.686s-4.686-7.040-4.686-11.314 1.664-8.292 4.686-11.314c3.022-3.022 7.040-4.686 11.314-4.686 0.19 0 0.394 0.004 0.626 0.013 0.218 0.008 0.406 0.156 0.467 0.365s-0.020 0.435-0.2 0.558c-3.878 2.662-6.194 7.054-6.194 11.75 0 3.655 1.383 7.13 3.894 9.785 0.192 0.203 0.183 0.523-0.020 0.716s-0.524 0.183-0.716-0.020c-2.689-2.843-4.17-6.565-4.17-10.48 0-4.512 1.995-8.762 5.404-11.647-7.843 0.471-14.078 7.001-14.078 14.96 0 8.264 6.723 14.988 14.988 14.988 3.297 0 6.462-1.073 9.059-3.047-0.040 0-0.079 0-0.119 0-3.628 0-7.143-1.295-9.899-3.648-0.213-0.181-0.238-0.501-0.056-0.714s0.501-0.238 0.714-0.056c2.572 2.196 5.854 3.405 9.241 3.405 0.513 0 1.036-0.029 1.554-0.085 0.217-0.023 0.424 0.095 0.515 0.293s0.044 0.433-0.116 0.581c-2.969 2.762-6.838 4.283-10.893 4.283z"></path>
<path fill="#ffd960" style="fill: var(--color1, #ffd960)" d="M24.072 20.328c0 0.856-0.694 1.55-1.55 1.55s-1.55-0.694-1.55-1.55c0-0.856 0.694-1.55 1.55-1.55s1.55 0.694 1.55 1.55z"></path>
<path fill="#231f20" style="fill: var(--color2, #231f20)" opacity="0.2" d="M22.522 20.328c0-0.573 0.312-1.074 0.775-1.342-0.228-0.132-0.492-0.208-0.775-0.208-0.856 0-1.55 0.694-1.55 1.55s0.694 1.55 1.55 1.55c0.282 0 0.547-0.076 0.775-0.208-0.463-0.268-0.775-0.768-0.775-1.342z"></path>
<path fill="#231f20" style="fill: var(--color2, #231f20)" d="M22.523 22.383c-1.134 0-2.056-0.922-2.056-2.056s0.922-2.056 2.056-2.056c1.134 0 2.056 0.922 2.056 2.056s-0.922 2.056-2.056 2.056zM22.523 19.284c-0.575 0-1.043 0.468-1.043 1.043s0.468 1.043 1.043 1.043 1.043-0.468 1.043-1.043c0-0.575-0.468-1.043-1.043-1.043z"></path>
<path fill="#231f20" style="fill: var(--color2, #231f20)" d="M30.626 17.082c0 0.598-0.484 1.082-1.082 1.082s-1.082-0.485-1.082-1.082c0-0.598 0.485-1.082 1.082-1.082s1.082 0.484 1.082 1.082z"></path>
</symbol>
<symbol id="icon-sun" viewBox="0 0 32 32">
<path fill="#fcc11a" style="fill: var(--color4, #fcc11a)" d="M9.352 10.488c-2.428 3.12-2.385 8.662 0.717 11.41 3.522 3.117 8.48 3.085 11.597 0.218 3.738-3.44 3.523-9.165 0.218-12.408-3.322-3.26-9.26-3.43-12.533 0.78z"></path>
<path fill="#fee269" style="fill: var(--color5, #fee269)" d="M13.25 9.418c-0.96-0.425-2.010 0.732-2.467 1.523-0.457 0.793-0.883 2.345 0.092 2.742 0.975 0.395 1.675-0.275 2.377-1.433 0.697-1.158 1.095-2.345-0.002-2.832z"></path>
<path fill="#ffa722" style="fill: var(--color6, #ffa722)" d="M15.75 5.067c-0.232 0.435-0.155 0.77 0.308 0.88s3.34 0.577 3.582 0.593c0.352 0.022 0.483-0.242 0.44-0.55-0.045-0.308-0.747-4.615-0.813-5.010s-0.483-0.79-0.88-0.262-2.463 4.022-2.637 4.35z"></path>
<path fill="#ffa722" style="fill: var(--color6, #ffa722)" d="M23.2 8.057c-0.453 0.14-0.44 0.418-0.198 0.77s1.913 2.9 2.065 3.078c0.155 0.175 0.418 0.22 0.637-0.045 0.22-0.262 2.965-4.112 3.165-4.353 0.33-0.395 0.133-0.813-0.372-0.683-0.385 0.103-5.012 1.145-5.297 1.232z"></path>
<path fill="#ffa722" style="fill: var(--color6, #ffa722)" d="M26.65 15.465c-0.325-0.185-0.747-0.133-0.858 0.285s-0.593 3.45-0.637 3.715 0.155 0.527 0.483 0.462 4.863-0.738 5.165-0.813c0.527-0.133 0.703-0.66 0.155-1.055-0.355-0.258-4-2.42-4.308-2.595z"></path>
<path fill="#ffa722" style="fill: var(--color6, #ffa722)" d="M23.023 22.65c0.35-0.188 0.66-0.045 0.747 0.352 0.087 0.395 1.055 4.44 1.21 5.188 0.078 0.375-0.352 0.683-0.703 0.462-0.352-0.22-4.172-2.883-4.418-3.1-0.352-0.308-0.108-0.628 0.065-0.79 0.35-0.332 2.768-1.935 3.098-2.113z"></path>
<path fill="#ffa722" style="fill: var(--color6, #ffa722)" d="M12.385 24.87c-0.443-0.043-0.572 0.352-0.505 0.703 0.065 0.352 0.725 4.81 0.77 5.143 0.065 0.483 0.572 0.683 0.9 0.198s2.588-4.1 2.77-4.44c0.33-0.615 0.087-0.747-0.242-0.9-0.328-0.152-3.23-0.657-3.692-0.703z"></path>
<path fill="#ffa722" style="fill: var(--color6, #ffa722)" d="M6.058 19.75c0.308-0.505 0.702-0.372 0.99 0.11 0.195 0.33 1.845 2.55 2 2.79 0.155 0.242 0.22 0.703-0.262 0.813-0.488 0.113-4.42 1.145-5.035 1.255s-0.968-0.372-0.572-0.9c0.23-0.31 2.705-3.78 2.88-4.067z"></path>
<path fill="#ffa722" style="fill: var(--color6, #ffa722)" d="M5.223 15.925c0.563 0.25 0.827 0.16 0.945-0.242 0.155-0.527 0.615-2.945 0.638-3.495 0.015-0.357-0.133-0.703-0.683-0.615s-4.505 0.64-5.010 0.815c-0.588 0.205-0.545 0.85-0.155 1.055 0.463 0.242 3.868 2.308 4.265 2.482z"></path>
<path fill="#ffa722" style="fill: var(--color6, #ffa722)" d="M12.057 6.695c0.318-0.253 0.22-0.615-0.065-0.813s-3.815-2.75-4.263-3.1c-0.395-0.308-0.88-0.198-0.747 0.505 0.095 0.505 1.22 4.925 1.297 5.23 0.088 0.352 0.352 0.527 0.66 0.307 0.303-0.217 2.787-1.865 3.117-2.13z"></path>
</symbol>
</defs>
</svg>
